<svg width="50" height="50" viewBox="0 0 50 50" fill="none" xmlns="http://www.w3.org/2000/svg">
<path d="M38.945 6.08L33.945 3.455C29.555 1.1525 27.36 0 25 0C22.64 0 20.445 1.15 16.055 3.455L11.055 6.08C6.6225 8.405 4.015 9.775 2.4 11.605L25 22.905L47.6 11.605C45.985 9.775 43.38 8.405 38.945 6.08ZM49.37 14.91L26.875 26.16V49.76C28.67 49.3125 30.7125 48.2425 33.945 46.545L38.945 43.92C44.3225 41.0975 47.0125 39.6875 48.5075 37.15C50 34.615 50 31.4575 50 25.15V24.8575C50 20.125 50 17.165 49.37 14.91ZM23.125 49.76V26.16L0.63 14.91C2.23517e-07 17.165 0 20.125 0 24.8525V25.145C0 31.4575 -2.98023e-07 34.615 1.4925 37.15C2.9875 39.6875 5.6775 41.1 11.055 43.9225L16.055 46.545C19.2875 48.2425 21.33 49.3125 23.125 49.76Z" fill="black"/>
</svg>
