<svg width="52" height="54" viewBox="0 0 52 54" fill="none" xmlns="http://www.w3.org/2000/svg">
<path d="M44.6877 19.4999C43.844 19.4952 43.0074 19.6544 42.2244 19.9686L35.0783 11.0483C35.6657 10.2023 36.0457 9.22985 36.1876 8.20969C36.3295 7.18954 36.2292 6.15031 35.895 5.17608C35.5608 4.20185 35.0019 3.31996 34.2636 2.60177C33.5254 1.88358 32.6284 1.34924 31.6454 1.04198C30.6623 0.734718 29.6207 0.663168 28.6048 0.833113C27.589 1.00306 26.6274 1.40973 25.7978 2.02023C24.9683 2.63072 24.2941 3.4279 23.8298 4.34728C23.3655 5.26666 23.1241 6.28242 23.1252 7.31239C23.1252 7.54253 23.1369 7.77251 23.1603 8.00145L12.2689 12.539C11.6128 11.7342 10.7752 11.0967 9.82475 10.6787C8.87434 10.2606 7.83831 10.0741 6.80178 10.1343C5.76526 10.1946 4.75782 10.4999 3.86225 11.0253C2.96668 11.5506 2.20853 12.2809 1.65011 13.1562C1.09169 14.0315 0.748922 15.0269 0.649982 16.0604C0.551042 17.094 0.69875 18.1362 1.08097 19.1016C1.46319 20.067 2.06901 20.9279 2.84865 21.6136C3.62829 22.2993 4.5595 22.7902 5.56577 23.046L5.99937 33.9163C5.00581 34.2555 4.10814 34.8282 3.38174 35.5862C2.65534 36.3442 2.1214 37.2655 1.82477 38.2726C1.52814 39.2797 1.47746 40.3433 1.677 41.374C1.87654 42.4048 2.32047 43.3726 2.97151 44.1962C3.62255 45.0199 4.46171 45.6753 5.41851 46.1075C6.37532 46.5396 7.42185 46.736 8.47024 46.6799C9.51862 46.6238 10.5383 46.3171 11.4435 45.7854C12.3488 45.2536 13.1133 44.5125 13.6728 43.6241L25.0002 46.7975C25.0161 47.8531 25.2864 48.8892 25.7881 49.8179C26.2899 50.7467 27.0083 51.5407 27.8824 52.1326C28.7565 52.7245 29.7604 53.0968 30.8091 53.2179C31.8578 53.3389 32.9202 53.2053 33.9062 52.8282C34.8922 52.4511 35.7726 51.8417 36.4728 51.0517C37.1731 50.2618 37.6724 49.3145 37.9284 48.2904C38.1845 47.2663 38.1897 46.1955 37.9436 45.169C37.6976 44.1424 37.2075 43.1904 36.515 42.3936L42.8923 32.3741C43.795 32.6311 44.7422 32.6914 45.6702 32.5512C46.5981 32.4109 47.4852 32.0732 48.2716 31.5608C49.0579 31.0485 49.7252 30.3735 50.2284 29.5813C50.7317 28.7892 51.0592 27.8983 51.1888 26.9688C51.3184 26.0393 51.2471 25.0928 50.9798 24.1931C50.7125 23.2935 50.2553 22.4617 49.6392 21.7538C49.023 21.0459 48.2621 20.4784 47.408 20.0896C46.5538 19.7008 45.6262 19.4997 44.6877 19.4999ZM11.6853 21.4593L21.6533 27.2343L11.9361 34.7858C11.2757 34.3135 10.5335 33.9678 9.74702 33.7663L9.31343 22.896C10.1974 22.5915 11.006 22.1017 11.6853 21.4593ZM30.0556 13.8749C30.7752 13.8356 31.4832 13.6772 32.1509 13.4061L39.297 22.3265C38.8414 22.981 38.5094 23.7134 38.3173 24.4874L27.4025 25.0077L30.0556 13.8749ZM14.24 37.746L24.0627 30.1077L27.7986 41.3179C27.0872 41.8195 26.4818 42.4567 26.0173 43.1929L14.6876 40.0147C14.6739 39.2379 14.5223 38.4698 14.24 37.746ZM31.5627 40.1249H31.3541L27.5619 28.7507L38.4955 28.2304C38.7716 29.0051 39.1915 29.7207 39.733 30.3397L33.3556 40.3593C32.7716 40.1988 32.1683 40.1199 31.5627 40.1249ZM24.6064 11.4608C25.1101 12.0751 25.7197 12.5942 26.4064 12.9936L23.758 24.1147L13.5697 18.2155C13.6896 17.715 13.7501 17.2021 13.7501 16.6874C13.7501 16.4573 13.7384 16.2273 13.715 15.9983L24.6064 11.4608Z" fill="black"/>
</svg>
