<svg width="46" height="33" viewBox="0 0 46 33" fill="none" xmlns="http://www.w3.org/2000/svg">
<path d="M5.63625 20.7762C6.345 21.5287 7.04875 22.2762 7.71125 23.2262V25H17.0025V23.2262C16.8362 21.8462 16.5437 19.36 16.5175 18.6687C16.4825 17.6962 15.1775 15.9237 15.1775 15.9237L11.1712 10.8737C11.1712 10.8737 10.0375 9.67622 9.38875 8.34872C8.73875 7.01997 7.35875 8.69122 7.17625 9.88622C6.99125 11.0812 7.34125 11.7112 7.34125 11.7112L9.62875 16.2587C9.62875 16.2587 6.97625 12.625 6.1525 11.165C5.735 10.425 5.61875 8.85747 5.4875 7.10622C5.36125 5.39997 5.22125 3.51872 4.7775 2.05622C3.8775 -0.906278 1.275 -0.16503 0.823748 1.15997C0.373748 2.48372 0.474998 11.2325 0.638748 12.6912C0.767498 13.8337 1.45625 14.9512 2.2325 16.2112C2.4475 16.5612 2.67 16.9212 2.88875 17.295C3.75875 18.785 4.70125 19.7862 5.63625 20.7762ZM38.2912 23.2262C38.9538 22.2762 39.6575 21.5287 40.3662 20.7762C41.3013 19.7862 42.2437 18.785 43.115 17.295C43.3325 16.92 43.555 16.5612 43.77 16.2125C44.5463 14.9525 45.235 13.8337 45.3637 12.6912C45.5275 11.2325 45.63 2.48372 45.1787 1.15997C44.7275 -0.16503 42.125 -0.906279 41.225 2.05747C40.7825 3.51997 40.6425 5.39997 40.515 7.10622C40.3838 8.85747 40.2675 10.425 39.85 11.165C39.0262 12.6262 36.3725 16.2587 36.3725 16.2587L38.6612 11.7112C38.6612 11.7112 39.0112 11.0812 38.8275 9.88622C38.6437 8.69122 37.2637 7.01997 36.615 8.34872C35.965 9.67622 34.8312 10.8737 34.8312 10.8737L30.825 15.9237C30.825 15.9237 29.52 17.6962 29.485 18.6687C29.46 19.36 29.1662 21.8462 29 23.2262V25H38.2912V23.2262ZM25.5 31.25C25.5 31.5815 25.6317 31.8994 25.8661 32.1339C26.1005 32.3683 26.4185 32.5 26.75 32.5H36.75C37.0815 32.5 37.3995 32.3683 37.6339 32.1339C37.8683 31.8994 38 31.5815 38 31.25V28.75C38 28.4184 37.8683 28.1005 37.6339 27.8661C37.3995 27.6317 37.0815 27.5 36.75 27.5H26.75C26.4185 27.5 26.1005 27.6317 25.8661 27.8661C25.6317 28.1005 25.5 28.4184 25.5 28.75V31.25ZM20.5025 31.25C20.5025 31.5815 20.3708 31.8994 20.1364 32.1339C19.902 32.3683 19.584 32.5 19.2525 32.5H9.2525C8.92098 32.5 8.60303 32.3683 8.36861 32.1339C8.13419 31.8994 8.0025 31.5815 8.0025 31.25V28.75C8.0025 28.4184 8.13419 28.1005 8.36861 27.8661C8.60303 27.6317 8.92098 27.5 9.2525 27.5H19.2525C19.584 27.5 19.902 27.6317 20.1364 27.8661C20.3708 28.1005 20.5025 28.4184 20.5025 28.75V31.25Z" fill="black"/>
</svg>
